<?xml version="1.0"?><svg version="1.2" baseProfile="tiny-ps" viewBox="0 0 32 32" xmlns="http://www.w3.org/2000/svg" xmlns:xlink="http://www.w3.org/1999/xlink"><title>Build It</title><g><g fill="#fdffff" transform="matrix(.1 0 0 -.1 0 32)"><path d="M0 160V0h320v320H0V160z"/></g><g fill="#e7ffff" transform="matrix(.1 0 0 -.1 0 32)"><path d="m75 303-6-18 25-21 25-22-20-18-19-17-24 22-23 22-16-7-17-6v-45l20-18 20-18-20-14-20-14V82l17-7 18-6 21 25 22 25 18-20 18-20-9-7c-6-4-16-14-23-23L70 33l6-17 6-16h21c11 0 29 7 39 17l18 16 18-16c10-10 28-17 39-17h21l6 17 7 16-23 24-22 23 16 16 16 16 23-21 23-22 16 3 15 3 3 24 4 23-21 22-20 22 19 12 20 12v49l-20 6-21 7-19-24-19-23-17 17-18 18 23 24 24 25-6 15-6 16h-44l-19-17-18-16-18 16c-10 10-28 17-39 17H82l-7-17zm101-134 6-11-11-11-11-11-11 11-11 11 6 11c4 6 11 11 16 11s12-5 16-11z"/></g><g fill="#d2fffe" transform="matrix(.1 0 0 -.1 0 32)"><path d="m83 305-5-16 17-19 18-20 8 6 9 5v-9c0-5-11-18-23-30l-24-22-27 21-27 21-14-6c-22-8-18-29 10-56l24-23-24-19c-14-11-25-26-25-34V89l15-6 16-5 19 17 20 18-6 8-5 9h9c5 0 19-11 32-25l23-25-23-24-23-25 6-15c9-23 27-20 57 9l26 25 14-25 13-25h38l6 17 6 16-26 23-26 22 18 16c22 20 45 20 61 1s39-19 47 1l6 15-27 28c-25 26-35 48-17 37l8-6 18 20 17 19-5 16c-8 20-30 19-50-3l-17-19 7-6 6-7h-10c-5 0-20 11-33 25l-23 25 23 24 23 25-6 15c-9 23-30 20-57-9-13-14-28-25-33-25h-10l6 7 7 6-17 19c-20 22-42 23-50 3zm97-131 13-15-16-17-17-16-17 16-16 17 13 15c7 9 16 16 20 16s13-7 20-16z"/></g><g fill="#a8fef8" transform="matrix(.1 0 0 -.1 0 32)"><path d="m90 305-12-15 12-15c16-19 39-19 46 0l6 15-12 15c-16 19-24 19-40 0zm53-47-62-62-26 24-25 24-17-17-17-17 64-65 64-65-24-25-24-25 17-17 17-17 65 64 65 64 25-24 25-24 17 17 17 17-64 65-64 65 23 24 24 25-13 16c-7 8-15 15-19 15-3 0-34-28-68-62zm42-98v-25l-23-3-22-3-6 15c-3 9-3 23 0 32l6 15 22-3 23-3v-25zm85 65-12-15 6-15c7-19 30-19 46 0l12 15-12 15c-16 19-24 19-40 0zM10 124l-13-15 16-16 16-16 15 13c9 7 16 21 16 31v19H41c-10 0-24-7-31-16zm173-80-6-16 17-16 16-16 17 16 16 17-13 15c-16 20-39 20-47 0z"/></g><g fill="#6cd4c6" transform="matrix(.1 0 0 -.1 0 32)"><path d="m92 307-12-14 20-18 20-19 12 12 12 12-20 21-21 20-11-14zm55-55-66-66-29 27-28 27-12-12-12-12 67-68 67-68-27-28-27-28 12-12 12-12 68 67 68 67 28-27 28-27 12 12 12 12-67 68-67 68 27 28 28 29-14 11-13 11-67-67zm37-68c9-8 16-19 16-24 0-11-29-40-40-40s-40 29-40 40c0 5 7 16 16 24 8 9 19 16 24 16s16-7 24-16zm91 36-19-20 12-12 12-12 21 20 20 21-14 11-14 12-18-20zM16 121l-17-18 14-12 14-11 17 19 18 20-7 10c-9 16-20 14-39-8zm169-72-7-10 18-20 17-19 14 11 14 12-17 18c-19 22-30 24-39 8z"/></g><g fill="#1ec6ae" transform="matrix(.1 0 0 -.1 0 32)"><path d="m95 300-7-11 12-15 13-14 13 11 14 12-11 13c-14 17-25 18-34 4zm48-52-62-62-26 24-25 24-12-12-12-12 64-65 64-65-24-25-24-25 12-12 12-12 65 64 65 64 25-24 25-24 12 12 12 12-64 65-64 65 23 24 23 25-7 10c-11 18-18 14-82-51zm47-63 12-14-4-17c-2-9-11-22-20-28l-18-11-17 11c-10 6-19 19-21 28l-4 17 12 14c16 19 44 19 60 0zm81 31-11-13 14-12 13-11 13 14 12 15-7 11c-9 14-20 13-34-4zM20 125 7 109l11-11 12-12 16 15 15 16-14 11-14 12-13-15zm172-78-12-14 15-13 16-13 11 11 12 12-15 16-16 15-11-14z"/></g></g></svg>